# xmcd CD database file
# Copyright (C) 1993-1998 Ti Kan
# 
# Track frame offsets:
#     150
#     18407
#     36517
#     51857
# 
# Disc length: 930 seconds
# 
# Revision: 1
# Processed by: cddbd v1.4b41PL1 Copyright (c) Steve Scherf et al.
# Submitted via: DiscPlay 4.0.3
# 
DISCID=2f03a004
DTITLE=Born Jamericans - Send My Love [send one your love]
DYEAR=1900
DGENRE=
TTITLE0=Radio Edit
TTITLE1=Z Remix
TTITLE2=Dancehall Remix
TTITLE3=Radio Edit Instrumental
EXTD=
EXTT0=
EXTT1=
EXTT2=
EXTT3=
PLAYORDER=
